HIERARCHY
ROOT Hips
{
	OFFSET 0.000000 0.000000 0.000000
	CHANNELS 6 Xposition Yposition Zposition Zrotation Yrotation Xrotation 
	JOINT LHipJoint
	{
		OFFSET 0.000000 0.000000 0.000000
		CHANNELS 3 Zrotation Yrotation Xrotation
		JOINT LeftUpLeg
		{
			OFFSET 1.363060 -1.794630 0.839290
			CHANNELS 3 Zrotation Yrotation Xrotation
			JOINT LeftLeg
			{
				OFFSET 2.448110 -6.726130 0.000000
				CHANNELS 3 Zrotation Yrotation Xrotation
				JOINT LeftFoot
				{
					OFFSET 2.562200 -7.039590 0.000000
					CHANNELS 3 Zrotation Yrotation Xrotation
					JOINT LeftToeBase
					{
						OFFSET 0.157640 -0.433110 2.322550
						CHANNELS 3 Zrotation Yrotation Xrotation
						End Site
						{
							OFFSET 0.000000 0.000000 0.000000
						}
					}
				}
			}
		}
	}
	JOINT RHipJoint
	{
		OFFSET 0.000000 0.000000 0.000000
		CHANNELS 3 Zrotation Yrotation Xrotation
		JOINT RightUpLeg
		{
			OFFSET -1.305520 -1.794630 0.839290
			CHANNELS 3 Zrotation Yrotation Xrotation
			JOINT RightLeg
			{
				OFFSET -2.542530 -6.985550 0.000000
				CHANNELS 3 Zrotation Yrotation Xrotation
				JOINT RightFoot
				{
					OFFSET -2.568260 -7.056230 0.000000
					CHANNELS 3 Zrotation Yrotation Xrotation
					JOINT RightToeBase
					{
						OFFSET -0.164730 -0.452590 2.363150
						CHANNELS 3 Zrotation Yrotation Xrotation
						End Site
						{
							OFFSET 0.000000 0.000000 0.000000
						}
					}
				}
			}
		}
	}
	JOINT LowerBack
	{
		OFFSET 0.000000 0.000000 0.000000
		CHANNELS 3 Zrotation Yrotation Xrotation
		JOINT Spine
		{
			OFFSET 0.028270 2.035590 -0.193380
			CHANNELS 3 Zrotation Yrotation Xrotation
			JOINT Spine1
			{
				OFFSET 0.056720 2.048850 -0.042750
				CHANNELS 3 Zrotation Yrotation Xrotation
				JOINT Neck
				{
					OFFSET 0.000000 0.000000 0.000000
					CHANNELS 3 Zrotation Yrotation Xrotation
					JOINT Neck1
					{
						OFFSET -0.054170 1.746240 0.172020
						CHANNELS 3 Zrotation Yrotation Xrotation
						JOINT Head
						{
							OFFSET 0.104070 1.761360 -0.123970
							CHANNELS 3 Zrotation Yrotation Xrotation
							End Site
							{
								OFFSET 0.000000 0.000000 0.000000
							}
						}
					}
				}
				JOINT LeftShoulder
				{
					OFFSET 0.000000 0.000000 0.000000
					CHANNELS 3 Zrotation Yrotation Xrotation
					JOINT LeftArm
					{
						OFFSET 3.362410 1.200890 -0.311210
						CHANNELS 3 Zrotation Yrotation Xrotation
						JOINT LeftForeArm
						{
							OFFSET 4.983000 -0.000000 -0.000000
							CHANNELS 3 Zrotation Yrotation Xrotation
							JOINT LeftHand
							{
								OFFSET 3.483560 -0.000000 -0.000000
								CHANNELS 3 Zrotation Yrotation Xrotation
								JOINT LeftFingerBase
								{
									OFFSET 0.000000 0.000000 0.000000
									CHANNELS 3 Zrotation Yrotation Xrotation
									JOINT LeftHandIndex1
									{
										OFFSET 0.715260 -0.000000 -0.000000
										CHANNELS 3 Zrotation Yrotation Xrotation
										End Site
										{
											OFFSET 0.000000 0.000000 0.000000
										}
									}
								}
								JOINT LThumb
								{
									OFFSET 0.000000 0.000000 0.000000
									CHANNELS 3 Zrotation Yrotation Xrotation
									End Site
									{
										OFFSET 0.000000 0.000000 0.000000
									}
								}
							}
						}
					}
				}
				JOINT RightShoulder
				{
					OFFSET 0.000000 0.000000 0.000000
					CHANNELS 3 Zrotation Yrotation Xrotation
					JOINT RightArm
					{
						OFFSET -3.136600 1.374050 -0.404650
						CHANNELS 3 Zrotation Yrotation Xrotation
						JOINT RightForeArm
						{
							OFFSET -5.241900 -0.000000 -0.000000
							CHANNELS 3 Zrotation Yrotation Xrotation
							JOINT RightHand
							{
								OFFSET -3.444170 -0.000000 -0.000000
								CHANNELS 3 Zrotation Yrotation Xrotation
								JOINT RightFingerBase
								{
									OFFSET 0.000000 0.000000 0.000000
									CHANNELS 3 Zrotation Yrotation Xrotation
									JOINT RightHandIndex1
									{
										OFFSET -0.622530 -0.000000 -0.000000
										CHANNELS 3 Zrotation Yrotation Xrotation
										End Site
										{
											OFFSET 0.000000 0.000000 0.000000
										}
									}
								}
								JOINT RThumb
								{
									OFFSET 0.000000 0.000000 0.000000
									CHANNELS 3 Zrotation Yrotation Xrotation
									End Site
									{
										OFFSET 0.000000 0.000000 0.000000
									}
								}
							}
						}
					}
				}
			}
		}
	}
}
MOTION
Frames: 5
Frame Time: 0.008333
24.850152 22.291205 7.714880 -0.159408 -9.774380 2.984884 -16.925070 5.554041 3.917788 3.264631 -2.286401 -30.614973 -37.347745 10.790127 103.529766 32.024447 79.443711 14.947280 -0.763829 3.200892 -6.477674 14.383847 -5.782898 2.226977 -2.619126 7.752154 -31.472573 -29.302991 3.619341 73.991714 -16.419224 -5.229517 33.919032 32.830176 56.330802 24.445420 1.500383 -1.277866 5.831632 0.901688 -1.138975 -4.262520 -1.282553 -1.298612 -1.829984 -2.118679 -0.450904 -1.953423 7.083489 1.294933 25.618634 -4.077981 3.435529 -21.816628 -0.630822 1.210460 -0.295135 -41.228131 6.170519 16.431950 34.229875 -14.477823 -41.821584 4.605477 -7.308801 -35.062665 -0.450482 1.217633 -0.000000 0.000000 0.000000 0.000000 0.000000 0.000000 0.000000 1.491204 -1.997205 0.397372 46.169470 -13.435009 14.811181 -27.473625 13.754266 -37.713989 -11.683269 -2.695823 -30.503705 4.364809 0.730651 -0.000000 0.000000 0.000000 0.000000 0.000000 0.000000 0.000000
24.860344 22.311155 7.742887 -0.132810 -9.546734 2.932384 -16.846594 5.398812 3.871195 3.175091 -1.890743 -31.383612 -35.985146 11.686344 104.629718 41.789229 80.974874 24.295009 -0.546531 3.504570 -5.385695 14.415125 -5.717522 2.204014 -2.824357 8.333500 -31.392997 -30.081273 4.120202 75.354300 -16.731089 -5.403083 34.258359 32.092727 55.043159 24.594873 1.479598 -1.310195 6.008635 0.904406 -1.169397 -4.262825 -1.287321 -1.329646 -1.823815 -2.137163 -0.444576 -1.852865 7.026659 1.150950 25.638318 -4.270199 3.264153 -21.897220 -0.683869 1.168720 -0.323587 -40.755228 6.142452 16.203786 33.542324 -14.737963 -41.805351 4.853229 -7.118353 -34.899413 -0.595647 1.200550 -0.000000 0.000000 0.000000 0.000000 0.000000 0.000000 0.000000 1.558329 -1.989312 0.326016 45.484194 -13.719508 14.404832 -26.400502 14.129277 -36.962703 -11.724060 -2.278592 -29.772883 4.355267 0.653007 -0.000000 0.000000 0.000000 0.000000 0.000000 0.000000 0.000000
24.872024 22.327092 7.768903 -0.117401 -9.221116 3.043573 -16.812533 5.327821 3.753120 2.913219 -1.517404 -32.144051 -33.045676 11.277390 105.305582 48.715520 80.875089 31.165175 -0.523171 3.542262 -5.272404 14.440956 -5.649956 2.248048 -3.001635 8.869533 -31.360871 -30.680809 4.540193 76.125563 -16.752405 -5.791560 34.946090 30.396771 53.147961 23.804324 1.469561 -1.366171 6.044880 0.909404 -1.223468 -4.263818 -1.287411 -1.385258 -1.765451 -2.136984 -0.460147 -1.822449 6.921396 0.968051 25.694736 -4.274140 3.051065 -22.075511 -0.807752 1.170997 -0.305927 -40.335458 5.830253 15.862510 32.694659 -15.081933 -41.425833 4.475974 -7.354790 -34.356009 -0.476824 1.221837 -0.000000 0.000000 0.000000 0.000000 0.000000 0.000000 0.000000 1.681701 -2.027935 0.330901 44.860714 -13.790966 14.087688 -25.609643 14.299833 -36.465844 -12.040321 -1.861806 -29.380680 4.432263 0.505181 -0.000000 0.000000 0.000000 0.000000 0.000000 0.000000 0.000000
24.882466 22.346079 7.796645 -0.031633 -9.071973 3.140857 -16.704805 5.149259 3.716698 2.874830 -1.514359 -32.586110 -32.755678 11.262508 105.588491 51.542055 83.019016 34.819570 -0.724700 2.751781 -6.079792 14.489060 -5.533024 2.257584 -3.296971 9.448710 -31.150016 -30.942856 4.742666 76.410620 -16.568827 -6.207731 35.455444 28.032914 50.066953 23.028551 1.329424 -1.391049 6.055223 0.910815 -1.240409 -4.263834 -1.240731 -1.399593 -1.811961 -2.131172 -0.431048 -1.688657 6.883595 0.820980 25.859666 -4.383137 2.886839 -22.385692 -0.930332 1.031960 -0.467381 -39.696722 6.015857 14.548541 31.261668 -16.229351 -40.986171 5.207729 -7.201906 -33.306392 -0.860868 1.288529 -0.000000 0.000000 0.000000 0.000000 0.000000 0.000000 0.000000 1.844877 -1.931889 0.290051 44.253373 -14.063642 14.032448 -24.733881 14.369574 -35.623272 -11.888243 -1.242642 -28.808488 4.319356 0.360638 -0.000000 0.000000 0.000000 0.000000 0.000000 0.000000 0.000000
24.895832 22.362211 7.828654 0.023144 -8.873139 3.237257 -16.698344 5.253986 3.535900 2.556632 -1.116416 -33.044877 -29.179658 9.394861 104.848597 56.415628 80.156812 39.337822 -0.044813 3.705582 -2.721612 14.506750 -5.539108 2.361076 -3.609933 10.102303 -30.870019 -30.838662 4.732055 76.181254 -15.785336 -7.057799 35.974436 25.470304 46.152535 22.646759 1.324635 -1.427083 6.050400 0.913925 -1.275659 -4.264051 -1.244919 -1.435538 -1.772569 -2.195654 -0.419198 -1.661457 6.850096 0.695427 25.974265 -4.571854 2.742066 -22.589387 -1.058569 0.980259 -0.497558 -39.524620 5.836565 14.634533 30.755332 -15.988916 -40.938154 5.059570 -7.225272 -33.450777 -0.801126 1.287298 -0.000000 0.000000 0.000000 0.000000 0.000000 0.000000 0.000000 2.032444 -1.927912 0.322158 43.577895 -14.038252 13.661197 -23.649126 14.442972 -34.578800 -11.738898 -0.773935 -28.010924 4.234080 0.273755 -0.000000 0.000000 0.000000 0.000000 0.000000 0.000000 0.000000
